<svg width="92" height="46" viewBox="0 0 92 46" fill="none" xmlns="http://www.w3.org/2000/svg">
    <path d="M92 3.95356C91.7504 1.92837 90.2352 0.314253 88.3056 0C79.848 0 12.1888 0 3.7312 0C1.6176 0.344409 0 2.24739 0 4.5408C0 8.22772 0 37.7167 0 41.4021C0 43.9415 1.9792 46 4.4224 46C12.7408 46 79.296 46 87.6144 46C89.864 46 91.7216 44.2526 92 41.9909C92 34.3837 92 7.75634 92 3.95356Z" fill="#F6C700" />
    <path d="M11.096 9.24348H18.3968V37.1216H11.096V9.24348Z" fill="black"/>
    <path d="M32.192 22.085C31.5648 17.8363 31.216 15.4746 31.1472 15.0032C30.8416 12.7288 30.5504 10.7497 30.272 9.06097C29.64 9.06097 26.4864 9.06097 20.8064 9.06097V36.939H27.2016L27.224 18.5314L29.9152 36.939H34.4704L37.0224 18.1219L37.0464 36.939H43.4208V9.06097H33.8832L32.192 22.085Z" fill="black"/>
    <path d="M55.4736 14.8604C55.5536 15.2159 55.5952 16.0222 55.5952 17.2823C55.5952 18.3632 55.5952 27.0099 55.5952 28.0908C55.5952 29.9461 55.4736 31.0825 55.232 31.5015C54.9888 31.9205 54.3424 32.1284 53.2944 32.1284C53.2944 30.2985 53.2944 15.6587 53.2944 13.8287C54.0896 13.8287 54.632 13.9129 54.92 14.0779C55.208 14.2446 55.3936 14.5049 55.4736 14.8604ZM58.7712 36.6549C59.64 36.4661 60.3696 36.1328 60.9616 35.6582C61.552 35.1821 61.9664 34.5234 62.2032 33.6806C62.4416 32.8395 62.5824 31.1682 62.5824 28.6685C62.5824 27.6908 62.5824 19.8583 62.5824 18.879C62.5824 16.2412 62.4784 14.4731 62.3168 13.5748C62.1536 12.6749 61.7488 11.8575 61.1008 11.1243C60.4512 10.391 59.504 9.86407 58.2592 9.54346C57.0128 9.22286 54.9808 9.06097 51.4464 9.06097C51.0832 9.06097 49.2688 9.06097 46 9.06097V36.939H54.8448C56.8832 36.8756 58.192 36.7819 58.7712 36.6549Z" fill="black"/>
    <path d="M74.3616 32.4887C74.2272 32.8426 73.6384 33.022 73.1936 33.022C72.7584 33.022 72.4688 32.8506 72.3216 32.5062C72.1744 32.1633 72.1024 31.3809 72.1024 30.1556C72.1024 29.4192 72.1024 23.5245 72.1024 22.7881C72.1024 21.5184 72.1664 20.7264 72.296 20.4106C72.424 20.0979 72.7056 19.9392 73.1408 19.9392C73.5856 19.9392 74.1824 20.1185 74.336 20.4788C74.488 20.8391 74.5648 21.6089 74.5648 22.7881C74.5648 23.2643 74.5648 25.645 74.5648 29.9318C74.5184 31.3999 74.4512 32.2522 74.3616 32.4887ZM65.0688 36.6962H71.6416C71.9152 35.6312 72.0656 35.0392 72.096 34.9202C72.6912 35.6344 73.3456 36.1709 74.064 36.5264C74.7792 36.8835 75.8496 37.0612 76.6784 37.0612C77.832 37.0612 78.8272 36.7613 79.6672 36.1597C80.5056 35.5598 81.04 34.8488 81.2672 34.0314C81.4944 33.2124 81.608 31.9681 81.608 30.2953C81.608 29.5128 81.608 23.2563 81.608 22.4739C81.608 20.7915 81.5696 19.6932 81.4944 19.1774C81.4192 18.6616 81.1952 18.1362 80.8224 17.5982C80.4496 17.0601 79.9072 16.6427 79.1968 16.3443C78.4864 16.046 77.648 15.8968 76.6816 15.8968C75.8416 15.8968 74.7664 16.0634 74.0496 16.3919C73.3344 16.7205 72.6848 17.2188 72.1024 17.887C72.1024 17.2823 72.1024 14.2604 72.1024 8.81813H65.0688V36.6962Z" fill="black"/>
</svg>
