<svg width="300" height="416" viewBox="0 0 300 416" fill="none" xmlns="http://www.w3.org/2000/svg">
    <path d="M298.846 1.15384H1.15385V414.231H298.846V1.15384Z" fill="white" stroke="#999999"/>
    <path d="M60.3893 174.117V199H55.2795V174.117H60.3893ZM69.8058 184.337V199H64.8669V180.509H69.4982L69.8058 184.337ZM69.1223 189.105H67.7551C67.7551 187.818 67.9089 186.633 68.2165 185.55C68.5355 184.457 68.9969 183.511 69.6008 182.713C70.216 181.904 70.9737 181.278 71.8737 180.833C72.7738 180.389 73.8163 180.167 75.0012 180.167C75.8215 180.167 76.5734 180.292 77.257 180.543C77.9406 180.782 78.5274 181.164 79.0173 181.688C79.5186 182.201 79.9059 182.873 80.1794 183.705C80.4528 184.525 80.5895 185.51 80.5895 186.661V199H75.6677V187.208C75.6677 186.365 75.5537 185.715 75.3259 185.26C75.098 184.804 74.7733 184.485 74.3517 184.303C73.9416 184.12 73.446 184.029 72.8649 184.029C72.2269 184.029 71.6686 184.16 71.1901 184.422C70.723 184.684 70.3356 185.049 70.028 185.516C69.7204 185.972 69.4925 186.507 69.3444 187.123C69.1963 187.738 69.1223 188.399 69.1223 189.105ZM80.1281 188.541L78.3679 188.763C78.3679 187.556 78.516 186.433 78.8122 185.396C79.1198 184.36 79.5698 183.448 80.1623 182.662C80.7661 181.876 81.5124 181.266 82.4011 180.833C83.2897 180.389 84.3151 180.167 85.4772 180.167C86.3659 180.167 87.1748 180.298 87.904 180.56C88.6332 180.811 89.2541 181.215 89.7668 181.773C90.2909 182.32 90.6896 183.038 90.9631 183.927C91.2479 184.815 91.3903 185.903 91.3903 187.191V199H86.4514V187.191C86.4514 186.336 86.3374 185.687 86.1096 185.243C85.8931 184.787 85.5741 184.474 85.1525 184.303C84.7424 184.12 84.2525 184.029 83.6828 184.029C83.0904 184.029 82.572 184.149 82.1276 184.388C81.6833 184.616 81.313 184.935 81.0168 185.345C80.7206 185.755 80.4984 186.234 80.3503 186.781C80.2022 187.316 80.1281 187.903 80.1281 188.541ZM105.182 194.83V186.593C105.182 186 105.085 185.493 104.891 185.072C104.698 184.639 104.396 184.303 103.986 184.063C103.587 183.824 103.068 183.705 102.43 183.705C101.883 183.705 101.411 183.801 101.012 183.995C100.613 184.177 100.306 184.445 100.089 184.798C99.8726 185.14 99.7643 185.545 99.7643 186.012H94.8425C94.8425 185.226 95.0248 184.479 95.3893 183.773C95.7539 183.067 96.2837 182.446 96.9787 181.91C97.6737 181.363 98.4997 180.936 99.4567 180.628C100.425 180.321 101.508 180.167 102.704 180.167C104.139 180.167 105.415 180.406 106.532 180.885C107.648 181.363 108.526 182.081 109.164 183.038C109.813 183.995 110.138 185.191 110.138 186.627V194.54C110.138 195.554 110.201 196.385 110.326 197.035C110.451 197.673 110.633 198.231 110.873 198.709V199H105.9C105.66 198.499 105.478 197.872 105.353 197.12C105.239 196.357 105.182 195.593 105.182 194.83ZM105.831 187.738L105.865 190.523H103.114C102.465 190.523 101.901 190.597 101.422 190.746C100.944 190.894 100.55 191.104 100.243 191.378C99.9352 191.64 99.7074 191.948 99.5593 192.301C99.4225 192.654 99.3542 193.041 99.3542 193.463C99.3542 193.884 99.451 194.266 99.6447 194.608C99.8384 194.938 100.118 195.2 100.482 195.394C100.847 195.576 101.274 195.667 101.764 195.667C102.504 195.667 103.148 195.519 103.695 195.223C104.242 194.927 104.663 194.562 104.96 194.129C105.267 193.696 105.427 193.286 105.438 192.899L106.737 194.984C106.555 195.451 106.304 195.935 105.985 196.437C105.677 196.938 105.284 197.411 104.806 197.855C104.327 198.288 103.752 198.647 103.08 198.932C102.408 199.205 101.61 199.342 100.687 199.342C99.5137 199.342 98.4484 199.108 97.4914 198.641C96.5458 198.163 95.7938 197.507 95.2355 196.676C94.6887 195.833 94.4152 194.876 94.4152 193.805C94.4152 192.836 94.5975 191.976 94.9621 191.224C95.3267 190.472 95.8622 189.84 96.5685 189.327C97.2863 188.803 98.1807 188.41 99.2516 188.148C100.323 187.875 101.564 187.738 102.977 187.738H105.831ZM125.638 180.509H130.099V198.385C130.099 200.071 129.723 201.501 128.971 202.674C128.23 203.859 127.194 204.754 125.861 205.357C124.528 205.973 122.978 206.28 121.212 206.28C120.437 206.28 119.617 206.178 118.751 205.973C117.897 205.768 117.076 205.449 116.29 205.016C115.515 204.583 114.866 204.036 114.342 203.375L116.512 200.47C117.082 201.131 117.743 201.643 118.495 202.008C119.247 202.384 120.078 202.572 120.99 202.572C121.879 202.572 122.631 202.407 123.246 202.076C123.861 201.757 124.334 201.284 124.664 200.658C124.995 200.042 125.16 199.296 125.16 198.419V184.781L125.638 180.509ZM113.197 189.977V189.618C113.197 188.205 113.368 186.923 113.71 185.772C114.063 184.61 114.558 183.613 115.196 182.782C115.846 181.95 116.632 181.306 117.555 180.851C118.478 180.395 119.52 180.167 120.682 180.167C121.913 180.167 122.944 180.395 123.776 180.851C124.607 181.306 125.291 181.956 125.826 182.799C126.362 183.631 126.778 184.616 127.074 185.755C127.382 186.883 127.621 188.119 127.792 189.464V190.25C127.621 191.537 127.364 192.734 127.023 193.839C126.681 194.944 126.231 195.912 125.673 196.744C125.114 197.564 124.419 198.202 123.588 198.658C122.767 199.114 121.787 199.342 120.648 199.342C119.509 199.342 118.478 199.108 117.555 198.641C116.643 198.174 115.863 197.519 115.214 196.676C114.564 195.833 114.063 194.841 113.71 193.702C113.368 192.563 113.197 191.321 113.197 189.977ZM118.119 189.618V189.977C118.119 190.74 118.193 191.452 118.341 192.113C118.489 192.774 118.717 193.36 119.025 193.873C119.344 194.374 119.737 194.767 120.204 195.052C120.682 195.326 121.246 195.462 121.896 195.462C122.796 195.462 123.531 195.274 124.1 194.898C124.67 194.511 125.097 193.981 125.382 193.309C125.667 192.637 125.832 191.862 125.878 190.985V188.746C125.855 188.028 125.758 187.385 125.587 186.815C125.416 186.234 125.177 185.738 124.869 185.328C124.562 184.918 124.163 184.599 123.673 184.371C123.183 184.143 122.602 184.029 121.93 184.029C121.28 184.029 120.716 184.177 120.238 184.474C119.771 184.758 119.378 185.152 119.059 185.653C118.751 186.154 118.518 186.747 118.358 187.43C118.199 188.102 118.119 188.832 118.119 189.618ZM142.438 199.342C141.002 199.342 139.715 199.114 138.575 198.658C137.436 198.191 136.468 197.547 135.67 196.727C134.884 195.907 134.28 194.955 133.859 193.873C133.437 192.779 133.226 191.617 133.226 190.387V189.703C133.226 188.302 133.426 187.02 133.824 185.858C134.223 184.696 134.793 183.688 135.533 182.833C136.285 181.979 137.197 181.323 138.268 180.868C139.339 180.401 140.546 180.167 141.891 180.167C143.201 180.167 144.363 180.383 145.377 180.816C146.391 181.249 147.24 181.865 147.924 182.662C148.619 183.46 149.143 184.417 149.496 185.533C149.849 186.638 150.026 187.869 150.026 189.225V191.275H135.328V187.994H145.189V187.618C145.189 186.935 145.064 186.325 144.813 185.79C144.574 185.243 144.209 184.81 143.719 184.491C143.23 184.172 142.603 184.012 141.84 184.012C141.19 184.012 140.632 184.155 140.165 184.439C139.698 184.724 139.316 185.123 139.02 185.636C138.735 186.148 138.518 186.752 138.37 187.447C138.234 188.131 138.165 188.883 138.165 189.703V190.387C138.165 191.127 138.268 191.811 138.473 192.438C138.689 193.064 138.991 193.605 139.379 194.061C139.777 194.517 140.256 194.87 140.814 195.121C141.384 195.371 142.028 195.497 142.745 195.497C143.634 195.497 144.46 195.326 145.223 194.984C145.998 194.631 146.665 194.101 147.223 193.395L149.615 195.992C149.228 196.55 148.698 197.086 148.026 197.599C147.365 198.111 146.568 198.533 145.633 198.863C144.699 199.182 143.634 199.342 142.438 199.342ZM166.739 180.509V199H161.8V180.509H166.739ZM161.493 175.689C161.493 174.972 161.744 174.379 162.245 173.912C162.746 173.445 163.418 173.211 164.261 173.211C165.093 173.211 165.76 173.445 166.261 173.912C166.774 174.379 167.03 174.972 167.03 175.689C167.03 176.407 166.774 177 166.261 177.467C165.76 177.934 165.093 178.167 164.261 178.167C163.418 178.167 162.746 177.934 162.245 177.467C161.744 177 161.493 176.407 161.493 175.689ZM180.804 193.89C180.804 193.537 180.702 193.218 180.497 192.933C180.292 192.648 179.91 192.386 179.352 192.147C178.805 191.896 178.013 191.668 176.976 191.463C176.042 191.258 175.17 191.002 174.362 190.694C173.564 190.375 172.869 189.994 172.277 189.549C171.695 189.105 171.24 188.581 170.909 187.977C170.579 187.362 170.414 186.661 170.414 185.875C170.414 185.1 170.579 184.371 170.909 183.688C171.251 183.004 171.735 182.4 172.362 181.876C173 181.34 173.775 180.925 174.686 180.628C175.609 180.321 176.646 180.167 177.797 180.167C179.403 180.167 180.782 180.423 181.932 180.936C183.094 181.449 183.983 182.155 184.598 183.055C185.225 183.944 185.538 184.958 185.538 186.097H180.616C180.616 185.619 180.514 185.191 180.309 184.815C180.115 184.428 179.807 184.126 179.386 183.91C178.976 183.682 178.44 183.568 177.779 183.568C177.233 183.568 176.76 183.665 176.361 183.858C175.962 184.041 175.655 184.291 175.438 184.61C175.233 184.918 175.131 185.26 175.131 185.636C175.131 185.921 175.188 186.177 175.301 186.405C175.427 186.621 175.626 186.821 175.9 187.003C176.173 187.185 176.526 187.356 176.959 187.516C177.404 187.664 177.95 187.8 178.6 187.926C179.933 188.199 181.123 188.558 182.172 189.002C183.22 189.435 184.051 190.028 184.667 190.78C185.282 191.52 185.59 192.494 185.59 193.702C185.59 194.522 185.407 195.274 185.043 195.958C184.678 196.642 184.154 197.24 183.47 197.752C182.787 198.254 181.966 198.647 181.009 198.932C180.064 199.205 178.999 199.342 177.814 199.342C176.093 199.342 174.635 199.034 173.439 198.419C172.254 197.804 171.354 197.023 170.738 196.078C170.135 195.121 169.833 194.141 169.833 193.138H174.498C174.521 193.81 174.692 194.352 175.011 194.762C175.341 195.172 175.757 195.468 176.258 195.65C176.771 195.833 177.324 195.924 177.916 195.924C178.554 195.924 179.084 195.838 179.506 195.667C179.927 195.485 180.246 195.246 180.463 194.95C180.69 194.642 180.804 194.289 180.804 193.89ZM202.32 184.457V199H197.399V180.509H202.013L202.32 184.457ZM201.603 189.105H200.27C200.27 187.738 200.446 186.507 200.799 185.414C201.153 184.308 201.648 183.368 202.286 182.594C202.924 181.808 203.682 181.209 204.559 180.799C205.448 180.378 206.439 180.167 207.533 180.167C208.399 180.167 209.191 180.292 209.908 180.543C210.626 180.794 211.241 181.192 211.754 181.739C212.278 182.286 212.677 183.01 212.95 183.91C213.235 184.81 213.378 185.909 213.378 187.208V199H208.422V187.191C208.422 186.371 208.308 185.733 208.08 185.277C207.852 184.821 207.516 184.502 207.071 184.32C206.639 184.126 206.103 184.029 205.465 184.029C204.804 184.029 204.229 184.16 203.739 184.422C203.26 184.684 202.862 185.049 202.543 185.516C202.235 185.972 202.001 186.507 201.842 187.123C201.682 187.738 201.603 188.399 201.603 189.105ZM216.334 189.942V189.583C216.334 188.228 216.528 186.98 216.915 185.841C217.303 184.69 217.867 183.693 218.607 182.85C219.348 182.007 220.259 181.352 221.341 180.885C222.424 180.406 223.666 180.167 225.067 180.167C226.468 180.167 227.716 180.406 228.81 180.885C229.904 181.352 230.821 182.007 231.561 182.85C232.313 183.693 232.883 184.69 233.27 185.841C233.658 186.98 233.851 188.228 233.851 189.583V189.942C233.851 191.287 233.658 192.534 233.27 193.685C232.883 194.824 232.313 195.821 231.561 196.676C230.821 197.519 229.909 198.174 228.827 198.641C227.744 199.108 226.503 199.342 225.101 199.342C223.7 199.342 222.452 199.108 221.359 198.641C220.276 198.174 219.359 197.519 218.607 196.676C217.867 195.821 217.303 194.824 216.915 193.685C216.528 192.534 216.334 191.287 216.334 189.942ZM221.256 189.583V189.942C221.256 190.717 221.324 191.441 221.461 192.113C221.598 192.785 221.814 193.377 222.111 193.89C222.418 194.391 222.817 194.785 223.307 195.069C223.797 195.354 224.395 195.497 225.101 195.497C225.785 195.497 226.372 195.354 226.862 195.069C227.351 194.785 227.744 194.391 228.041 193.89C228.337 193.377 228.553 192.785 228.69 192.113C228.838 191.441 228.912 190.717 228.912 189.942V189.583C228.912 188.832 228.838 188.125 228.69 187.464C228.553 186.792 228.331 186.2 228.024 185.687C227.727 185.163 227.334 184.753 226.844 184.457C226.355 184.16 225.762 184.012 225.067 184.012C224.372 184.012 223.78 184.16 223.29 184.457C222.811 184.753 222.418 185.163 222.111 185.687C221.814 186.2 221.598 186.792 221.461 187.464C221.324 188.125 221.256 188.832 221.256 189.583ZM245.934 180.509V183.995H235.167V180.509H245.934ZM237.833 175.946H242.755V193.429C242.755 193.964 242.823 194.374 242.96 194.659C243.108 194.944 243.325 195.143 243.61 195.257C243.894 195.36 244.253 195.411 244.686 195.411C244.994 195.411 245.267 195.4 245.507 195.377C245.757 195.343 245.968 195.309 246.139 195.274L246.156 198.897C245.734 199.034 245.279 199.142 244.789 199.222C244.299 199.302 243.758 199.342 243.165 199.342C242.083 199.342 241.137 199.165 240.328 198.812C239.531 198.447 238.916 197.866 238.483 197.069C238.05 196.271 237.833 195.223 237.833 193.924V175.946ZM91.7834 235.83V227.593C91.7834 227 91.6865 226.493 91.4929 226.072C91.2992 225.639 90.9973 225.303 90.5871 225.063C90.1883 224.824 89.6699 224.705 89.0319 224.705C88.485 224.705 88.0122 224.801 87.6135 224.995C87.2147 225.177 86.9071 225.445 86.6906 225.798C86.4741 226.14 86.3659 226.545 86.3659 227.012H81.444C81.444 226.226 81.6263 225.479 81.9909 224.773C82.3555 224.067 82.8853 223.446 83.5803 222.91C84.2752 222.363 85.1013 221.936 86.0583 221.628C87.0267 221.321 88.1091 221.167 89.3054 221.167C90.7409 221.167 92.0169 221.406 93.1335 221.885C94.25 222.363 95.1273 223.081 95.7653 224.038C96.4147 224.995 96.7394 226.191 96.7394 227.627V235.54C96.7394 236.554 96.8021 237.385 96.9274 238.035C97.0528 238.673 97.235 239.231 97.4743 239.709V240H92.5012C92.2619 239.499 92.0796 238.872 91.9543 238.12C91.8404 237.357 91.7834 236.593 91.7834 235.83ZM92.4328 228.738L92.467 231.523H89.7155C89.0661 231.523 88.5021 231.597 88.0236 231.746C87.5451 231.894 87.152 232.104 86.8444 232.378C86.5368 232.64 86.3089 232.948 86.1608 233.301C86.0241 233.654 85.9557 234.041 85.9557 234.463C85.9557 234.884 86.0526 235.266 86.2463 235.608C86.44 235.938 86.7191 236.2 87.0837 236.394C87.4483 236.576 87.8755 236.667 88.3654 236.667C89.106 236.667 89.7497 236.519 90.2966 236.223C90.8434 235.927 91.265 235.562 91.5612 235.129C91.8688 234.696 92.0283 234.286 92.0397 233.899L93.3386 235.984C93.1563 236.451 92.9056 236.935 92.5866 237.437C92.279 237.938 91.8859 238.411 91.4074 238.855C90.9289 239.288 90.3535 239.647 89.6813 239.932C89.0091 240.205 88.2116 240.342 87.2888 240.342C86.1153 240.342 85.05 240.108 84.093 239.641C83.1473 239.163 82.3954 238.507 81.8371 237.676C81.2902 236.833 81.0168 235.876 81.0168 234.805C81.0168 233.836 81.1991 232.976 81.5637 232.224C81.9282 231.472 82.4637 230.84 83.1701 230.327C83.8879 229.803 84.7822 229.41 85.8532 229.148C86.9242 228.875 88.166 228.738 89.5788 228.738H92.4328ZM106.549 236.411L110.651 221.509H115.795L109.557 240H106.446L106.549 236.411ZM103.729 221.509L107.848 236.428L107.933 240H104.806L98.5681 221.509H103.729ZM127.706 235.83V227.593C127.706 227 127.609 226.493 127.416 226.072C127.222 225.639 126.92 225.303 126.51 225.063C126.111 224.824 125.593 224.705 124.955 224.705C124.408 224.705 123.935 224.801 123.536 224.995C123.138 225.177 122.83 225.445 122.613 225.798C122.397 226.14 122.289 226.545 122.289 227.012H117.367C117.367 226.226 117.549 225.479 117.914 224.773C118.278 224.067 118.808 223.446 119.503 222.91C120.198 222.363 121.024 221.936 121.981 221.628C122.95 221.321 124.032 221.167 125.228 221.167C126.664 221.167 127.94 221.406 129.056 221.885C130.173 222.363 131.05 223.081 131.688 224.038C132.338 224.995 132.662 226.191 132.662 227.627V235.54C132.662 236.554 132.725 237.385 132.85 238.035C132.976 238.673 133.158 239.231 133.397 239.709V240H128.424C128.185 239.499 128.002 238.872 127.877 238.12C127.763 237.357 127.706 236.593 127.706 235.83ZM128.356 228.738L128.39 231.523H125.638C124.989 231.523 124.425 231.597 123.946 231.746C123.468 231.894 123.075 232.104 122.767 232.378C122.46 232.64 122.232 232.948 122.084 233.301C121.947 233.654 121.879 234.041 121.879 234.463C121.879 234.884 121.975 235.266 122.169 235.608C122.363 235.938 122.642 236.2 123.007 236.394C123.371 236.576 123.798 236.667 124.288 236.667C125.029 236.667 125.673 236.519 126.219 236.223C126.766 235.927 127.188 235.562 127.484 235.129C127.792 234.696 127.951 234.286 127.963 233.899L129.261 235.984C129.079 236.451 128.828 236.935 128.509 237.437C128.202 237.938 127.809 238.411 127.33 238.855C126.852 239.288 126.276 239.647 125.604 239.932C124.932 240.205 124.134 240.342 123.212 240.342C122.038 240.342 120.973 240.108 120.016 239.641C119.07 239.163 118.318 238.507 117.76 237.676C117.213 236.833 116.94 235.876 116.94 234.805C116.94 233.836 117.122 232.976 117.487 232.224C117.851 231.472 118.387 230.84 119.093 230.327C119.811 229.803 120.705 229.41 121.776 229.148C122.847 228.875 124.089 228.738 125.502 228.738H128.356ZM141.652 221.509V240H136.713V221.509H141.652ZM136.405 216.689C136.405 215.972 136.656 215.379 137.157 214.912C137.658 214.445 138.33 214.211 139.174 214.211C140.005 214.211 140.672 214.445 141.173 214.912C141.686 215.379 141.942 215.972 141.942 216.689C141.942 217.407 141.686 218 141.173 218.467C140.672 218.934 140.005 219.167 139.174 219.167C138.33 219.167 137.658 218.934 137.157 218.467C136.656 218 136.405 217.407 136.405 216.689ZM150.914 213.75V240H145.975V213.75H150.914ZM164.962 235.83V227.593C164.962 227 164.865 226.493 164.672 226.072C164.478 225.639 164.176 225.303 163.766 225.063C163.367 224.824 162.849 224.705 162.211 224.705C161.664 224.705 161.191 224.801 160.792 224.995C160.393 225.177 160.086 225.445 159.869 225.798C159.653 226.14 159.545 226.545 159.545 227.012H154.623C154.623 226.226 154.805 225.479 155.17 224.773C155.534 224.067 156.064 223.446 156.759 222.91C157.454 222.363 158.28 221.936 159.237 221.628C160.205 221.321 161.288 221.167 162.484 221.167C163.92 221.167 165.196 221.406 166.312 221.885C167.429 222.363 168.306 223.081 168.944 224.038C169.593 224.995 169.918 226.191 169.918 227.627V235.54C169.918 236.554 169.981 237.385 170.106 238.035C170.231 238.673 170.414 239.231 170.653 239.709V240H165.68C165.441 239.499 165.258 238.872 165.133 238.12C165.019 237.357 164.962 236.593 164.962 235.83ZM165.612 228.738L165.646 231.523H162.894C162.245 231.523 161.681 231.597 161.202 231.746C160.724 231.894 160.331 232.104 160.023 232.378C159.716 232.64 159.488 232.948 159.34 233.301C159.203 233.654 159.134 234.041 159.134 234.463C159.134 234.884 159.231 235.266 159.425 235.608C159.619 235.938 159.898 236.2 160.262 236.394C160.627 236.576 161.054 236.667 161.544 236.667C162.285 236.667 162.928 236.519 163.475 236.223C164.022 235.927 164.444 235.562 164.74 235.129C165.048 234.696 165.207 234.286 165.218 233.899L166.517 235.984C166.335 236.451 166.084 236.935 165.765 237.437C165.458 237.938 165.065 238.411 164.586 238.855C164.108 239.288 163.532 239.647 162.86 239.932C162.188 240.205 161.39 240.342 160.467 240.342C159.294 240.342 158.229 240.108 157.272 239.641C156.326 239.163 155.574 238.507 155.016 237.676C154.469 236.833 154.195 235.876 154.195 234.805C154.195 233.836 154.378 232.976 154.742 232.224C155.107 231.472 155.642 230.84 156.349 230.327C157.067 229.803 157.961 229.41 159.032 229.148C160.103 228.875 161.345 228.738 162.758 228.738H165.612ZM173.712 213.75H178.634V235.762L178.138 240H173.712V213.75ZM190.341 230.566V230.925C190.341 232.304 190.192 233.569 189.896 234.719C189.611 235.87 189.167 236.867 188.563 237.71C187.959 238.542 187.207 239.191 186.307 239.658C185.419 240.114 184.37 240.342 183.163 240.342C182.035 240.342 181.055 240.114 180.223 239.658C179.403 239.202 178.714 238.559 178.155 237.727C177.597 236.895 177.147 235.921 176.805 234.805C176.464 233.688 176.207 232.469 176.036 231.147V230.361C176.207 229.04 176.464 227.821 176.805 226.704C177.147 225.588 177.597 224.613 178.155 223.782C178.714 222.95 179.403 222.306 180.223 221.851C181.044 221.395 182.012 221.167 183.129 221.167C184.348 221.167 185.407 221.401 186.307 221.868C187.219 222.323 187.971 222.973 188.563 223.816C189.167 224.648 189.611 225.639 189.896 226.79C190.192 227.929 190.341 229.188 190.341 230.566ZM185.419 230.925V230.566C185.419 229.814 185.362 229.108 185.248 228.447C185.145 227.775 184.963 227.188 184.701 226.687C184.439 226.174 184.08 225.77 183.624 225.474C183.18 225.177 182.605 225.029 181.898 225.029C181.226 225.029 180.656 225.143 180.189 225.371C179.722 225.599 179.335 225.918 179.027 226.328C178.731 226.738 178.509 227.228 178.361 227.798C178.212 228.356 178.121 228.971 178.087 229.644V231.882C178.121 232.782 178.269 233.58 178.531 234.275C178.805 234.958 179.215 235.5 179.762 235.898C180.32 236.286 181.044 236.479 181.932 236.479C182.627 236.479 183.203 236.343 183.658 236.069C184.114 235.796 184.467 235.409 184.718 234.907C184.98 234.406 185.162 233.819 185.265 233.147C185.367 232.463 185.419 231.723 185.419 230.925ZM198.595 213.75V240H193.656V213.75H198.595ZM211.173 240.342C209.737 240.342 208.45 240.114 207.311 239.658C206.171 239.191 205.203 238.547 204.405 237.727C203.619 236.907 203.015 235.955 202.594 234.873C202.172 233.779 201.962 232.617 201.962 231.387V230.703C201.962 229.302 202.161 228.02 202.56 226.858C202.959 225.696 203.528 224.688 204.269 223.833C205.021 222.979 205.932 222.323 207.003 221.868C208.074 221.401 209.282 221.167 210.626 221.167C211.936 221.167 213.098 221.383 214.112 221.816C215.126 222.249 215.975 222.865 216.659 223.662C217.354 224.46 217.878 225.417 218.231 226.533C218.584 227.638 218.761 228.869 218.761 230.225V232.275H204.064V228.994H213.924V228.618C213.924 227.935 213.799 227.325 213.549 226.79C213.309 226.243 212.945 225.81 212.455 225.491C211.965 225.172 211.338 225.012 210.575 225.012C209.925 225.012 209.367 225.155 208.9 225.439C208.433 225.724 208.051 226.123 207.755 226.636C207.47 227.148 207.254 227.752 207.106 228.447C206.969 229.131 206.901 229.883 206.901 230.703V231.387C206.901 232.127 207.003 232.811 207.208 233.438C207.425 234.064 207.727 234.605 208.114 235.061C208.513 235.517 208.991 235.87 209.549 236.121C210.119 236.371 210.763 236.497 211.481 236.497C212.369 236.497 213.195 236.326 213.959 235.984C214.733 235.631 215.4 235.101 215.958 234.395L218.351 236.992C217.963 237.55 217.434 238.086 216.761 238.599C216.101 239.111 215.303 239.533 214.369 239.863C213.435 240.182 212.369 240.342 211.173 240.342Z" fill="#999999"/>
</svg>
