<svg width="92" height="46" fill="none" xmlns="http://www.w3.org/2000/svg"><path d="M92 3.954C91.75 1.928 90.235.314 88.306 0H3.73C1.618.344 0 2.247 0 4.54v36.862C0 43.942 1.98 46 4.422 46h83.192c2.25 0 4.108-1.747 4.386-4.01V3.955Z" fill="#F6C700"/><path d="M11.096 9.243h7.3v27.879h-7.3V9.243ZM32.192 22.085l-1.045-7.082a204.727 204.727 0 0 0-.875-5.942h-9.466v27.878h6.396l.022-18.408 2.691 18.408h4.555l2.552-18.817.024 18.817h6.375V9.061h-9.538l-1.691 13.024ZM55.474 14.86c.08.356.121 1.162.121 2.422v10.809c0 1.855-.121 2.991-.363 3.41-.243.42-.89.627-1.938.627v-18.3c.796 0 1.338.085 1.626.25.288.167.474.427.554.782Zm3.297 21.795c.869-.189 1.599-.522 2.19-.997.591-.476 1.005-1.135 1.242-1.977.239-.841.38-2.513.38-5.012v-9.79c0-2.638-.105-4.406-.266-5.304-.163-.9-.568-1.717-1.216-2.45-.65-.734-1.597-1.26-2.842-1.582-1.246-.32-3.278-.482-6.813-.482H46v27.878h8.845c2.038-.063 3.347-.157 3.926-.284ZM74.362 32.489c-.135.354-.724.533-1.168.533-.436 0-.725-.171-.872-.516-.148-.343-.22-1.125-.22-2.35v-7.368c0-1.27.064-2.062.194-2.377.128-.313.41-.472.845-.472.445 0 1.041.18 1.195.54.152.36.229 1.13.229 2.31v7.143c-.047 1.468-.114 2.32-.203 2.557Zm-9.293 4.207h6.573l.454-1.776c.595.714 1.25 1.25 1.968 1.606.715.357 1.786.535 2.614.535 1.154 0 2.15-.3 2.99-.901.838-.6 1.372-1.311 1.6-2.129.226-.819.34-2.063.34-3.736v-7.821c0-1.683-.038-2.78-.114-3.297-.075-.515-.299-1.04-.672-1.579-.372-.538-.915-.955-1.625-1.254-.71-.298-1.549-.447-2.515-.447-.84 0-1.916.166-2.632.495-.716.329-1.365.827-1.948 1.495V8.818H65.07v27.878Z" fill="#000"/></svg>