<svg width="300" height="416" fill="none" xmlns="http://www.w3.org/2000/svg"><path d="M298.846 1.154H1.154V414.23h297.692V1.154Z" fill="#fff" stroke="#999"/><path d="M60.39 174.117V199h-5.11v-24.883h5.11Zm9.416 10.22V199h-4.94v-18.491h4.632l.308 3.828Zm-.684 4.768h-1.367c0-1.287.154-2.472.462-3.555.319-1.093.78-2.039 1.384-2.837a6.364 6.364 0 0 1 2.273-1.88c.9-.444 1.942-.666 3.127-.666.82 0 1.572.125 2.256.376.684.239 1.27.621 1.76 1.145.502.513.889 1.185 1.162 2.017.274.82.41 1.805.41 2.956V199h-4.921v-11.792c0-.843-.114-1.493-.342-1.948-.228-.456-.553-.775-.974-.957-.41-.183-.906-.274-1.487-.274-.638 0-1.196.131-1.675.393a3.332 3.332 0 0 0-1.162 1.094 4.888 4.888 0 0 0-.684 1.607 8.451 8.451 0 0 0-.222 1.982Zm11.006-.564-1.76.222c0-1.207.148-2.33.444-3.367.308-1.036.758-1.948 1.35-2.734a6.226 6.226 0 0 1 2.24-1.829c.888-.444 1.913-.666 3.075-.666.889 0 1.698.131 2.427.393.73.251 1.35.655 1.863 1.213.524.547.923 1.265 1.196 2.154.285.888.427 1.976.427 3.264V199h-4.939v-11.809c0-.855-.114-1.504-.341-1.948-.217-.456-.536-.769-.957-.94-.41-.183-.9-.274-1.47-.274-.593 0-1.111.12-1.555.359a3.099 3.099 0 0 0-1.111.957c-.296.41-.519.889-.667 1.436a6.585 6.585 0 0 0-.222 1.76Zm25.054 6.289v-8.237c0-.593-.097-1.1-.291-1.521a2.163 2.163 0 0 0-.905-1.009c-.399-.239-.918-.358-1.556-.358-.547 0-1.019.096-1.418.29-.399.182-.706.45-.923.803-.216.342-.325.747-.325 1.214h-4.921c0-.786.182-1.533.546-2.239.365-.706.895-1.327 1.59-1.863.695-.547 1.52-.974 2.478-1.282.968-.307 2.051-.461 3.247-.461 1.435 0 2.711.239 3.828.718 1.116.478 1.994 1.196 2.632 2.153.649.957.974 2.153.974 3.589v7.913c0 1.014.063 1.845.188 2.495.125.638.307 1.196.547 1.674V199H105.9c-.24-.501-.422-1.128-.547-1.88a15.483 15.483 0 0 1-.171-2.29Zm.649-7.092.034 2.785h-2.751c-.649 0-1.213.074-1.692.223-.478.148-.872.358-1.179.632-.308.262-.536.57-.684.923-.136.353-.205.74-.205 1.162 0 .421.097.803.29 1.145.194.33.474.592.838.786.365.182.792.273 1.282.273.74 0 1.384-.148 1.931-.444.547-.296.968-.661 1.265-1.094.307-.433.467-.843.478-1.23l1.299 2.085a8.455 8.455 0 0 1-.752 1.453 6.808 6.808 0 0 1-1.179 1.418 6.095 6.095 0 0 1-1.726 1.077c-.672.273-1.47.41-2.393.41-1.173 0-2.239-.234-3.196-.701-.945-.478-1.697-1.134-2.255-1.965-.547-.843-.82-1.8-.82-2.871 0-.969.181-1.829.546-2.581.365-.752.9-1.384 1.606-1.897.718-.524 1.613-.917 2.684-1.179 1.071-.273 2.312-.41 3.725-.41h2.854Zm19.807-7.229h4.461v17.876c0 1.686-.376 3.116-1.128 4.289-.741 1.185-1.777 2.08-3.11 2.683-1.333.616-2.883.923-4.649.923-.775 0-1.595-.102-2.461-.307a9.845 9.845 0 0 1-2.461-.957 6.496 6.496 0 0 1-1.948-1.641l2.17-2.905a6.141 6.141 0 0 0 1.983 1.538c.752.376 1.583.564 2.495.564.889 0 1.641-.165 2.256-.496a3.28 3.28 0 0 0 1.418-1.418c.331-.616.496-1.362.496-2.239v-13.638l.478-4.272Zm-12.441 9.468v-.359c0-1.413.171-2.695.513-3.846.353-1.162.848-2.159 1.486-2.99a6.754 6.754 0 0 1 2.359-1.931c.923-.456 1.965-.684 3.127-.684 1.231 0 2.262.228 3.094.684a5.584 5.584 0 0 1 2.05 1.948c.536.832.952 1.817 1.248 2.956.308 1.128.547 2.364.718 3.709v.786a21.995 21.995 0 0 1-.769 3.589c-.342 1.105-.792 2.073-1.35 2.905a5.99 5.99 0 0 1-2.085 1.914c-.821.456-1.801.684-2.94.684s-2.17-.234-3.093-.701a6.898 6.898 0 0 1-2.341-1.965c-.65-.843-1.151-1.835-1.504-2.974-.342-1.139-.513-2.381-.513-3.725Zm4.922-.359v.359c0 .763.074 1.475.222 2.136.148.661.376 1.247.684 1.76.319.501.712.894 1.179 1.179.478.274 1.042.41 1.692.41.9 0 1.635-.188 2.204-.564.57-.387.997-.917 1.282-1.589.285-.672.45-1.447.496-2.324v-2.239a7.563 7.563 0 0 0-.291-1.931c-.171-.581-.41-1.077-.718-1.487a3.097 3.097 0 0 0-1.196-.957c-.49-.228-1.071-.342-1.743-.342-.65 0-1.214.148-1.692.445-.467.284-.86.678-1.179 1.179-.308.501-.541 1.094-.701 1.777a9.496 9.496 0 0 0-.239 2.188Zm24.319 9.724c-1.436 0-2.723-.228-3.863-.684-1.139-.467-2.107-1.111-2.905-1.931a8.574 8.574 0 0 1-1.811-2.854 9.601 9.601 0 0 1-.633-3.486v-.684c0-1.401.2-2.683.598-3.845.399-1.162.969-2.17 1.709-3.025a7.506 7.506 0 0 1 2.735-1.965c1.071-.467 2.278-.701 3.623-.701 1.31 0 2.472.216 3.486.649a6.844 6.844 0 0 1 2.547 1.846c.695.798 1.219 1.755 1.572 2.871.353 1.105.53 2.336.53 3.692v2.05h-14.698v-3.281h9.861v-.376c0-.683-.125-1.293-.376-1.828a2.9 2.9 0 0 0-1.094-1.299c-.489-.319-1.116-.479-1.879-.479-.65 0-1.208.143-1.675.427a3.304 3.304 0 0 0-1.145 1.197c-.285.512-.502 1.116-.65 1.811a11.586 11.586 0 0 0-.205 2.256v.684c0 .74.103 1.424.308 2.051.216.626.518 1.167.906 1.623a4.13 4.13 0 0 0 1.435 1.06c.57.25 1.214.376 1.931.376.889 0 1.715-.171 2.478-.513a5.363 5.363 0 0 0 2-1.589l2.392 2.597c-.387.558-.917 1.094-1.589 1.607-.661.512-1.458.934-2.393 1.264-.934.319-1.999.479-3.195.479Zm24.301-18.833V199H161.8v-18.491h4.939Zm-5.246-4.82c0-.717.251-1.31.752-1.777.501-.467 1.173-.701 2.016-.701.832 0 1.499.234 2 .701.513.467.769 1.06.769 1.777 0 .718-.256 1.311-.769 1.778-.501.467-1.168.7-2 .7-.843 0-1.515-.233-2.016-.7-.501-.467-.752-1.06-.752-1.778Zm19.311 18.201a1.6 1.6 0 0 0-.307-.957c-.205-.285-.587-.547-1.145-.786-.547-.251-1.339-.479-2.376-.684a18.43 18.43 0 0 1-2.614-.769 9.025 9.025 0 0 1-2.085-1.145 4.971 4.971 0 0 1-1.368-1.572c-.33-.615-.495-1.316-.495-2.102 0-.775.165-1.504.495-2.187a5.636 5.636 0 0 1 1.453-1.812c.638-.536 1.413-.951 2.324-1.248.923-.307 1.96-.461 3.111-.461 1.606 0 2.985.256 4.135.769 1.162.513 2.051 1.219 2.666 2.119.627.889.94 1.903.94 3.042h-4.922c0-.478-.102-.906-.307-1.282a2.034 2.034 0 0 0-.923-.905c-.41-.228-.946-.342-1.607-.342-.546 0-1.019.097-1.418.29a2.183 2.183 0 0 0-.923.752c-.205.308-.307.65-.307 1.026 0 .285.057.541.17.769.126.216.325.416.599.598.273.182.626.353 1.059.513.445.148.991.284 1.641.41 1.333.273 2.523.632 3.572 1.076 1.048.433 1.879 1.026 2.495 1.778.615.74.923 1.714.923 2.922 0 .82-.183 1.572-.547 2.256-.365.684-.889 1.282-1.573 1.794-.683.502-1.504.895-2.461 1.18-.945.273-2.01.41-3.195.41-1.721 0-3.179-.308-4.375-.923-1.185-.615-2.085-1.396-2.701-2.341-.603-.957-.905-1.937-.905-2.94h4.665c.023.672.194 1.214.513 1.624.33.41.746.706 1.247.888a4.9 4.9 0 0 0 1.658.274c.638 0 1.168-.086 1.59-.257.421-.182.74-.421.957-.717a1.74 1.74 0 0 0 .341-1.06Zm21.516-9.433V199h-4.921v-18.491h4.614l.307 3.948Zm-.717 4.648h-1.333c0-1.367.176-2.598.529-3.691.354-1.106.849-2.046 1.487-2.82a6.391 6.391 0 0 1 2.273-1.795c.889-.421 1.88-.632 2.974-.632.866 0 1.658.125 2.375.376a4.549 4.549 0 0 1 1.846 1.196c.524.547.923 1.271 1.196 2.171.285.9.428 1.999.428 3.298V199h-4.956v-11.809c0-.82-.114-1.458-.342-1.914a1.917 1.917 0 0 0-1.009-.957c-.432-.194-.968-.291-1.606-.291-.661 0-1.236.131-1.726.393a3.426 3.426 0 0 0-1.196 1.094 5.14 5.14 0 0 0-.701 1.607 7.853 7.853 0 0 0-.239 1.982Zm14.731.837v-.359c0-1.355.194-2.603.581-3.742.388-1.151.952-2.148 1.692-2.991a7.586 7.586 0 0 1 2.734-1.965c1.083-.479 2.325-.718 3.726-.718 1.401 0 2.649.239 3.743.718 1.094.467 2.011 1.122 2.751 1.965.752.843 1.322 1.84 1.709 2.991.388 1.139.581 2.387.581 3.742v.359c0 1.345-.193 2.592-.581 3.743a8.724 8.724 0 0 1-1.709 2.991 7.577 7.577 0 0 1-2.734 1.965c-1.083.467-2.324.701-3.726.701-1.401 0-2.649-.234-3.742-.701a7.741 7.741 0 0 1-2.752-1.965 8.903 8.903 0 0 1-1.692-2.991c-.387-1.151-.581-2.398-.581-3.743Zm4.922-.359v.359c0 .775.068 1.499.205 2.171.137.672.353 1.264.65 1.777.307.501.706.895 1.196 1.179.49.285 1.088.428 1.794.428.684 0 1.271-.143 1.761-.428a3.258 3.258 0 0 0 1.179-1.179 5.88 5.88 0 0 0 .649-1.777c.148-.672.222-1.396.222-2.171v-.359c0-.751-.074-1.458-.222-2.119a5.617 5.617 0 0 0-.666-1.777 3.315 3.315 0 0 0-1.18-1.23c-.489-.297-1.082-.445-1.777-.445-.695 0-1.287.148-1.777.445a3.484 3.484 0 0 0-1.179 1.23 5.855 5.855 0 0 0-.65 1.777 10.436 10.436 0 0 0-.205 2.119Zm24.678-9.074v3.486h-10.767v-3.486h10.767Zm-8.101-4.563h4.922v17.483c0 .535.068.945.205 1.23.148.285.365.484.65.598.284.103.643.154 1.076.154.308 0 .581-.011.821-.034a9.9 9.9 0 0 0 .632-.103l.017 3.623a9.251 9.251 0 0 1-1.367.325c-.49.08-1.031.12-1.624.12-1.082 0-2.028-.177-2.837-.53-.797-.365-1.412-.946-1.845-1.743-.433-.798-.65-1.846-.65-3.145v-17.978ZM91.783 235.83v-8.237c0-.593-.097-1.1-.29-1.521a2.167 2.167 0 0 0-.906-1.009c-.399-.239-.917-.358-1.555-.358-.547 0-1.02.096-1.418.29-.4.182-.707.45-.923.803-.217.342-.325.747-.325 1.214h-4.922c0-.786.182-1.533.547-2.239.365-.706.894-1.327 1.59-1.863.694-.547 1.52-.974 2.477-1.282.969-.307 2.051-.461 3.247-.461 1.436 0 2.712.239 3.828.718 1.117.478 1.994 1.196 2.632 2.153.65.957.974 2.153.974 3.589v7.913c0 1.014.063 1.845.188 2.495.126.638.308 1.196.547 1.674V240h-4.973c-.24-.501-.421-1.128-.547-1.88a15.497 15.497 0 0 1-.17-2.29Zm.65-7.092.034 2.785h-2.751c-.65 0-1.214.074-1.692.223-.479.148-.872.358-1.18.632-.307.262-.535.57-.683.923a3.19 3.19 0 0 0-.205 1.162c0 .421.097.803.29 1.145.194.33.473.592.838.786.364.182.791.273 1.281.273.741 0 1.385-.148 1.932-.444.546-.296.968-.661 1.264-1.094.308-.433.467-.843.479-1.23l1.299 2.085a8.476 8.476 0 0 1-.752 1.453c-.308.501-.701.974-1.18 1.418a6.086 6.086 0 0 1-1.726 1.077c-.672.273-1.47.41-2.392.41-1.174 0-2.239-.234-3.196-.701-.946-.478-1.698-1.134-2.256-1.965-.547-.843-.82-1.8-.82-2.871 0-.969.182-1.829.547-2.581.364-.752.9-1.384 1.606-1.897.718-.524 1.612-.917 2.683-1.179 1.071-.273 2.313-.41 3.726-.41h2.854Zm14.116 7.673 4.102-14.902h5.144L109.557 240h-3.111l.103-3.589Zm-2.82-14.902 4.119 14.919.085 3.572h-3.127l-6.238-18.491h5.161Zm23.977 14.321v-8.237c0-.593-.097-1.1-.29-1.521a2.17 2.17 0 0 0-.906-1.009c-.399-.239-.917-.358-1.555-.358-.547 0-1.02.096-1.419.29a2.06 2.06 0 0 0-.923.803c-.216.342-.324.747-.324 1.214h-4.922c0-.786.182-1.533.547-2.239.364-.706.894-1.327 1.589-1.863.695-.547 1.521-.974 2.478-1.282.969-.307 2.051-.461 3.247-.461 1.436 0 2.712.239 3.828.718 1.117.478 1.994 1.196 2.632 2.153.65.957.974 2.153.974 3.589v7.913c0 1.014.063 1.845.188 2.495.126.638.308 1.196.547 1.674V240h-4.973c-.239-.501-.422-1.128-.547-1.88a15.483 15.483 0 0 1-.171-2.29Zm.65-7.092.034 2.785h-2.752c-.649 0-1.213.074-1.692.223-.478.148-.871.358-1.179.632a2.45 2.45 0 0 0-.683.923c-.137.353-.205.74-.205 1.162 0 .421.096.803.29 1.145.194.33.473.592.838.786.364.182.791.273 1.281.273.741 0 1.385-.148 1.931-.444.547-.296.969-.661 1.265-1.094.308-.433.467-.843.479-1.23l1.298 2.085a8.455 8.455 0 0 1-.752 1.453c-.307.501-.7.974-1.179 1.418a6.081 6.081 0 0 1-1.726 1.077c-.672.273-1.47.41-2.392.41-1.174 0-2.239-.234-3.196-.701-.946-.478-1.698-1.134-2.256-1.965-.547-.843-.82-1.8-.82-2.871 0-.969.182-1.829.547-2.581.364-.752.9-1.384 1.606-1.897.718-.524 1.612-.917 2.683-1.179 1.071-.273 2.313-.41 3.726-.41h2.854Zm13.296-7.229V240h-4.939v-18.491h4.939Zm-5.247-4.82c0-.717.251-1.31.752-1.777.501-.467 1.173-.701 2.017-.701.831 0 1.498.234 1.999.701.513.467.769 1.06.769 1.777 0 .718-.256 1.311-.769 1.778-.501.467-1.168.7-1.999.7-.844 0-1.516-.233-2.017-.7-.501-.467-.752-1.06-.752-1.778Zm14.509-2.939V240h-4.939v-26.25h4.939Zm14.048 22.08v-8.237c0-.593-.097-1.1-.29-1.521a2.17 2.17 0 0 0-.906-1.009c-.399-.239-.917-.358-1.555-.358-.547 0-1.02.096-1.419.29-.399.182-.706.45-.923.803-.216.342-.324.747-.324 1.214h-4.922c0-.786.182-1.533.547-2.239.364-.706.894-1.327 1.589-1.863.695-.547 1.521-.974 2.478-1.282.968-.307 2.051-.461 3.247-.461 1.436 0 2.712.239 3.828.718 1.117.478 1.994 1.196 2.632 2.153.649.957.974 2.153.974 3.589v7.913c0 1.014.063 1.845.188 2.495.125.638.308 1.196.547 1.674V240h-4.973c-.239-.501-.422-1.128-.547-1.88a15.483 15.483 0 0 1-.171-2.29Zm.65-7.092.034 2.785h-2.752c-.649 0-1.213.074-1.692.223-.478.148-.871.358-1.179.632a2.45 2.45 0 0 0-.683.923c-.137.353-.206.74-.206 1.162 0 .421.097.803.291 1.145.194.33.473.592.837.786.365.182.792.273 1.282.273.741 0 1.384-.148 1.931-.444.547-.296.969-.661 1.265-1.094.308-.433.467-.843.478-1.23l1.299 2.085a8.455 8.455 0 0 1-.752 1.453c-.307.501-.7.974-1.179 1.418a6.081 6.081 0 0 1-1.726 1.077c-.672.273-1.47.41-2.393.41-1.173 0-2.238-.234-3.195-.701-.946-.478-1.698-1.134-2.256-1.965-.547-.843-.821-1.8-.821-2.871 0-.969.183-1.829.547-2.581.365-.752.9-1.384 1.607-1.897.718-.524 1.612-.917 2.683-1.179 1.071-.273 2.313-.41 3.726-.41h2.854Zm8.1-14.988h4.922v22.012l-.496 4.238h-4.426v-26.25Zm16.629 16.816v.359c0 1.379-.149 2.644-.445 3.794-.285 1.151-.729 2.148-1.333 2.991a6.393 6.393 0 0 1-2.256 1.948c-.888.456-1.937.684-3.144.684-1.128 0-2.108-.228-2.94-.684-.82-.456-1.509-1.099-2.068-1.931-.558-.832-1.008-1.806-1.35-2.922a22.348 22.348 0 0 1-.769-3.658v-.786c.171-1.321.428-2.54.769-3.657.342-1.116.792-2.091 1.35-2.922.559-.832 1.248-1.476 2.068-1.931.821-.456 1.789-.684 2.906-.684 1.219 0 2.278.234 3.178.701a5.984 5.984 0 0 1 2.256 1.948c.604.832 1.048 1.823 1.333 2.974.296 1.139.445 2.398.445 3.776Zm-4.922.359v-.359c0-.752-.057-1.458-.171-2.119-.103-.672-.285-1.259-.547-1.76a3.087 3.087 0 0 0-1.077-1.213c-.444-.297-1.019-.445-1.726-.445-.672 0-1.242.114-1.709.342a3.172 3.172 0 0 0-1.162.957c-.296.41-.518.9-.666 1.47a8.898 8.898 0 0 0-.274 1.846v2.238c.034.9.182 1.698.444 2.393.274.683.684 1.225 1.231 1.623.558.388 1.282.581 2.17.581.695 0 1.271-.136 1.726-.41.456-.273.809-.66 1.06-1.162.262-.501.444-1.088.547-1.76.102-.684.154-1.424.154-2.222Zm13.176-17.175V240h-4.939v-26.25h4.939Zm12.578 26.592c-1.436 0-2.723-.228-3.862-.684-1.14-.467-2.108-1.111-2.906-1.931a8.574 8.574 0 0 1-1.811-2.854 9.6 9.6 0 0 1-.632-3.486v-.684c0-1.401.199-2.683.598-3.845.399-1.162.968-2.17 1.709-3.025a7.502 7.502 0 0 1 2.734-1.965c1.071-.467 2.279-.701 3.623-.701 1.31 0 2.472.216 3.486.649a6.844 6.844 0 0 1 2.547 1.846c.695.798 1.219 1.755 1.572 2.871.353 1.105.53 2.336.53 3.692v2.05h-14.697v-3.281h9.86v-.376c0-.683-.125-1.293-.375-1.828a2.907 2.907 0 0 0-1.094-1.299c-.49-.319-1.117-.479-1.88-.479-.65 0-1.208.143-1.675.427a3.304 3.304 0 0 0-1.145 1.197c-.285.512-.501 1.116-.649 1.811a11.509 11.509 0 0 0-.205 2.256v.684c0 .74.102 1.424.307 2.051.217.626.519 1.167.906 1.623a4.14 4.14 0 0 0 1.435 1.06c.57.25 1.214.376 1.932.376.888 0 1.714-.171 2.478-.513a5.368 5.368 0 0 0 1.999-1.589l2.393 2.597c-.388.558-.917 1.094-1.59 1.607-.66.512-1.458.934-2.392 1.264-.934.319-2 .479-3.196.479Z" fill="#999"/></svg>